<svg id="Layer_1" data-name="Layer 1" xmlns="http://www.w3.org/2000/svg" viewBox="0 0 64 64"><defs><style>.cls-1{fill:#a5a58d;}.cls-2{fill:#cb997e;}.cls-3{fill:#e76f51;}.cls-4{fill:#e9c46a;}</style></defs><path class="cls-1" d="M26.53,51.34q-3.68,2.89-7.06,5.13a27.45,27.45,0,0,0,34.45-7.89A75.51,75.51,0,0,1,32,51.5C30.19,51.5,28.35,51.44,26.53,51.34Z" id="id_189" style="fill: rgb(140, 92, 153);"></path><path class="cls-1" d="M19.45,50.64a58.21,58.21,0,0,1-9.38-2.06l0,0a27.33,27.33,0,0,0,5,5.07C16.46,52.81,17.91,51.79,19.45,50.64Z" id="id_190" style="fill: rgb(136, 87, 150);"></path><path class="cls-2" d="M9.09,47.19a55.2,55.2,0,0,0,11.48,2.59c2.26-1.75,4.68-3.76,7.19-6A6.25,6.25,0,0,1,27.5,42a6.52,6.52,0,0,1,1.07-3.57c-10.12-.35-19.12-2.32-24-5.22A27.4,27.4,0,0,0,7.92,45.28C8.27,45.93,8.67,46.56,9.09,47.19Z" id="id_191" style="fill: rgb(219, 201, 224);"></path><circle class="cls-3" cx="34" cy="42" r="5.5" id="id_192" style="fill: rgb(119, 120, 108);"></circle><path class="cls-2" d="M47.77,23.1a88.65,88.65,0,0,0,5.91-8,27.28,27.28,0,0,0-5.06-5L48.44,10A84.15,84.15,0,0,1,32,11.5,84.33,84.33,0,0,1,15.55,10,27.74,27.74,0,0,0,7.08,20.39C12.86,23,22.11,24.5,32,24.5A85.75,85.75,0,0,0,47.77,23.1Z" id="id_193" style="fill: rgb(225, 205, 230);"></path><path class="cls-1" d="M34,35.5a6.33,6.33,0,0,1,2.14.37c3.94-3.94,7.55-7.89,10.64-11.58A87.48,87.48,0,0,1,32,25.5c-10,0-19.43-1.57-25.33-4.2A27.27,27.27,0,0,0,4.5,32h0c4.72,3.08,14.18,5.16,24.85,5.45A6.5,6.5,0,0,1,34,35.5Z" id="id_194" style="fill: rgb(135, 86, 148);"></path><path class="cls-1" d="M47.31,9.17c-.67-.45-1.34-.88-2-1.25a27.48,27.48,0,0,0-28.6,1.25A84.61,84.61,0,0,0,32,10.5,84.42,84.42,0,0,0,47.31,9.17Z" id="id_195" style="fill: rgb(137, 88, 150);"></path><path class="cls-1" d="M42.26,36.93C49.77,36.08,56,34.31,59.5,32h0a27.53,27.53,0,0,0-3-12.54A127.78,127.78,0,0,1,42.26,36.93Z" id="id_196" style="fill: rgb(135, 87, 148);"></path><path class="cls-4" d="M60.75,3.25C58.91,1.41,53.59,3,46.47,7.47A25.66,25.66,0,0,1,48.94,9.1c4.43-2.78,7.17-3.58,8.35-2.39s.37,4-2.57,8.64c-3.64,5.73-10,13.34-17.6,20.95a6.53,6.53,0,0,1,2.29,2.11A130.34,130.34,0,0,0,56.1,18.21C60.91,10.74,62.65,5.15,60.75,3.25Z" id="id_197"></path><path class="cls-2" d="M39.92,39.32a6.49,6.49,0,0,1-9,8.39c-1.08.94-2.15,1.83-3.21,2.68,10.25.47,20.43-.76,27.2-3.2a27.37,27.37,0,0,0,4.57-14C55.54,35.54,49,37.28,41.16,38.05,40.75,38.47,40.34,38.9,39.92,39.32Z" id="id_198" style="fill: rgb(225, 207, 230);"></path><path class="cls-4" d="M28.14,44.79a107.55,107.55,0,0,1-12.79,9.93c-3.26,2.08-5.62,3.1-7.16,3.1a2,2,0,0,1-1.48-.53c-1.18-1.18-.39-3.92,2.39-8.35a25.66,25.66,0,0,1-1.63-2.47C3,53.59,1.41,58.9,3.25,60.75s7.49.16,15-4.65a108.9,108.9,0,0,0,11.83-9A6.48,6.48,0,0,1,28.14,44.79Z" id="id_199"></path></svg>