<?xml version="1.0" encoding="iso-8859-1"?>
<!-- Generator: Adobe Illustrator 19.0.0, SVG Export Plug-In . SVG Version: 6.00 Build 0)  -->
<svg version="1.1" id="Capa_1" xmlns="http://www.w3.org/2000/svg" xmlns:xlink="http://www.w3.org/1999/xlink" x="0px" y="0px"
	 viewBox="0 0 512.001 512.001" style="enable-background:new 0 0 512.001 512.001;" xml:space="preserve">
<path style="fill:#716499;" d="M469.04,256c0,26.427-4.811,51.73-13.604,75.078c-30.367,80.609-108.211,137.961-199.435,137.961
	c-94.689,0-174.953-61.779-202.677-147.219c-6.726-20.735-10.362-42.847-10.362-65.82c0-5.328,0.193-10.615,0.577-15.842
	c1.408-19.185,5.358-37.651,11.517-55.083c9.056-25.678,22.902-49.097,40.456-69.183c39.059-44.691,96.482-72.931,160.489-72.931
	c115.818,0,210.051,92.43,212.968,207.539C469.02,252.333,469.04,254.156,469.04,256z"/>
<g>
	<path style="fill:#503D7F;" d="M110.696,153.532l-2.796,2.725l0.658,3.859c1.094,6.351-0.658,12.803-4.791,17.716
		c-4.173,4.943-10.261,7.789-16.693,7.789c-3.505,0-7.009-0.871-10.15-2.522l-3.464-1.823l-3.454,1.823
		c-3.14,1.651-6.645,2.522-10.15,2.522c-1.631,0-3.241-0.182-4.801-0.547c9.056-25.678,22.902-49.097,40.456-69.183l3.099,0.446
		c8.276,1.205,15.022,6.888,17.605,14.839C118.8,139.128,116.683,147.698,110.696,153.532z"/>
	<path style="fill:#503D7F;" d="M70.159,290.835l-2.806,2.725l0.668,3.859c1.084,6.341-0.658,12.803-4.801,17.706
		c-2.654,3.15-6.088,5.45-9.896,6.695c-6.726-20.735-10.362-42.847-10.362-65.82c0-5.328,0.193-10.615,0.577-15.842
		c3.788,2.107,6.929,5.338,8.934,9.42l1.732,3.505l3.869,0.557c8.266,1.205,15.012,6.888,17.595,14.84
		C78.262,276.431,76.145,285,70.159,290.835z"/>
	<path style="fill:#503D7F;" d="M217.337,240.651c-3.504,0-7.012-0.871-10.147-2.52l-3.46-1.819l-3.459,1.819
		c-3.136,1.648-6.644,2.519-10.148,2.519c-6.437,0-12.521-2.838-16.694-7.787c-4.137-4.906-5.885-11.364-4.796-17.717l0.661-3.853
		l-2.799-2.729c-5.986-5.833-8.1-14.398-5.518-22.35c2.583-7.952,9.328-13.638,17.602-14.841l3.869-0.562l1.73-3.506
		c3.7-7.497,11.192-12.155,19.552-12.155s15.852,4.657,19.552,12.152l1.731,3.508l3.869,0.562
		c8.274,1.202,15.018,6.889,17.601,14.839c2.584,7.951,0.47,16.516-5.517,22.352l-2.799,2.729l0.661,3.851
		c1.089,6.354-0.659,12.811-4.795,17.718c-4.171,4.949-10.256,7.787-16.693,7.788C217.339,240.651,217.338,240.651,217.337,240.651z
		"/>
	<path style="fill:#503D7F;" d="M168.849,370.605c-3.503,0-7.011-0.871-10.146-2.519l-3.461-1.82l-3.459,1.819
		c-3.135,1.648-6.643,2.519-10.148,2.519c-6.438,0-12.522-2.839-16.695-7.788c-4.137-4.907-5.884-11.365-4.794-17.718l0.661-3.85
		l-2.799-2.729c-5.988-5.836-8.101-14.4-5.518-22.351c2.584-7.952,9.328-13.638,17.602-14.84l3.869-0.562l1.73-3.505
		c3.7-7.497,11.192-12.154,19.552-12.154c8.361,0,15.853,4.658,19.552,12.155l1.73,3.504l3.869,0.562
		c8.274,1.202,15.018,6.889,17.602,14.84s0.47,16.515-5.517,22.351l-2.8,2.729l0.661,3.853c1.09,6.35-0.657,12.808-4.793,17.714
		c-4.172,4.95-10.257,7.789-16.695,7.79C168.851,370.605,168.85,370.605,168.849,370.605z"/>
	<path style="fill:#503D7F;" d="M272.052,328.182c-3.504,0-7.012-0.871-10.147-2.52l-3.46-1.819l-3.458,1.819
		c-3.137,1.649-6.645,2.52-10.149,2.52c-6.438,0-12.523-2.839-16.696-7.788c-4.137-4.907-5.884-11.365-4.794-17.718l0.661-3.85
		l-2.799-2.729c-5.988-5.836-8.101-14.4-5.518-22.351c2.584-7.952,9.328-13.638,17.602-14.84l3.869-0.562l1.73-3.505
		c3.7-7.497,11.192-12.154,19.552-12.154c8.36,0,15.853,4.658,19.552,12.155l1.73,3.504l3.869,0.562
		c8.274,1.202,15.018,6.889,17.602,14.84c2.584,7.951,0.47,16.515-5.517,22.351l-2.8,2.729l0.661,3.853
		c1.09,6.35-0.657,12.808-4.793,17.714c-4.172,4.95-10.257,7.789-16.694,7.79C272.054,328.182,272.053,328.182,272.052,328.182z"/>
	<path style="fill:#503D7F;" d="M398.492,359.622c-3.503,0-7.011-0.871-10.146-2.519l-3.461-1.819l-3.46,1.819
		c-3.134,1.647-6.642,2.519-10.147,2.519c-6.437,0-12.521-2.838-16.694-7.787c-4.137-4.906-5.885-11.364-4.796-17.716l0.662-3.854
		l-2.799-2.729c-5.988-5.836-8.101-14.401-5.518-22.352c2.584-7.951,9.328-13.637,17.603-14.839l3.867-0.562l1.73-3.506
		c3.702-7.498,11.194-12.154,19.553-12.154c8.361,0,15.853,4.658,19.552,12.155l1.73,3.504l3.869,0.562
		c8.274,1.202,15.018,6.889,17.602,14.84c2.584,7.951,0.47,16.515-5.517,22.351l-2.8,2.729l0.661,3.853
		c1.089,6.352-0.658,12.809-4.795,17.715c-4.171,4.949-10.256,7.787-16.693,7.788C398.494,359.622,398.493,359.622,398.492,359.622z
		"/>
	<path style="fill:#503D7F;" d="M469.04,256c0,26.427-4.811,51.73-13.604,75.078c-2.512-1.296-4.781-3.1-6.655-5.328
		c-4.143-4.903-5.885-11.365-4.801-17.716l0.668-3.849l-2.806-2.735c-5.986-5.835-8.103-14.394-5.51-22.345
		c2.583-7.952,9.319-13.644,17.594-14.84l3.869-0.567l1.732-3.505c2.097-4.254,5.419-7.597,9.441-9.694
		C469.02,252.333,469.04,254.156,469.04,256z"/>
</g>
<g>
	<path style="fill:#A5B1B2;" d="M126.613,330.768c-0.981,0-1.977-0.191-2.938-0.595l-74.997-31.488
		c-3.869-1.624-5.688-6.077-4.064-9.945c1.624-3.869,6.081-5.688,9.945-4.064l74.997,31.488c3.869,1.624,5.688,6.077,4.064,9.945
		C132.4,329.017,129.581,330.768,126.613,330.768z"/>
	<path style="fill:#A5B1B2;" d="M174.473,196.709c-1.059,0-2.136-0.223-3.161-0.693l-72.471-33.235
		c-3.814-1.749-5.488-6.259-3.739-10.072s6.26-5.486,10.072-3.739l72.471,33.234c3.814,1.749,5.488,6.259,3.739,10.072
		C180.106,195.064,177.352,196.709,174.473,196.709z"/>
	<path style="fill:#A5B1B2;" d="M187.687,328.377c-3.553,0-6.728-2.505-7.445-6.123c-0.814-4.116,1.862-8.113,5.978-8.928
		l51.973-10.289c4.114-0.815,8.112,1.862,8.927,5.977c0.814,4.116-1.862,8.113-5.978,8.928l-51.973,10.289
		C188.672,328.329,188.175,328.377,187.687,328.377z"/>
	<path style="fill:#A5B1B2;" d="M253.411,265.486c-2.065,0-4.124-0.837-5.624-2.487l-29.485-32.433
		c-2.822-3.105-2.594-7.909,0.511-10.731c3.103-2.822,7.908-2.595,10.732,0.511l29.485,32.433c2.822,3.105,2.594,7.909-0.511,10.731
		C257.064,264.834,255.235,265.486,253.411,265.486z"/>
	<path style="fill:#A5B1B2;" d="M356.428,318.088c-0.438,0-0.881-0.038-1.328-0.117l-76.24-13.438
		c-4.132-0.729-6.892-4.668-6.163-8.8c0.728-4.132,4.669-6.889,8.8-6.163l76.24,13.438c4.132,0.729,6.892,4.668,6.163,8.8
		C363.252,315.494,360.046,318.088,356.428,318.088z"/>
	<path style="fill:#A5B1B2;" d="M413.509,318.088c-3.622,0-6.83-2.6-7.474-6.291c-0.722-4.133,2.043-8.069,6.176-8.791l46.865-8.187
		c4.131-0.721,8.07,2.043,8.791,6.176c0.722,4.133-2.043,8.069-6.176,8.791l-46.865,8.187
		C414.384,318.051,413.944,318.088,413.509,318.088z"/>
</g>
<g>
	<path style="fill:#FEC007;" d="M157.532,271.251c-4.196,0-7.597-3.401-7.597-7.597v-0.839c0-4.196,3.401-7.597,7.597-7.597
		s7.597,3.401,7.597,7.597v0.839C165.129,267.849,161.728,271.251,157.532,271.251z"/>
	<path style="fill:#FEC007;" d="M324.06,180.263c-4.196,0-7.597-3.401-7.597-7.597v-0.839c0-4.196,3.401-7.597,7.597-7.597
		s7.597,3.401,7.597,7.597v0.839C331.657,176.861,328.256,180.263,324.06,180.263z"/>
	<path style="fill:#FEC007;" d="M344.774,128.6c-4.196,0-7.597-3.401-7.597-7.597v-0.839c0-4.196,3.401-7.597,7.597-7.597
		s7.597,3.401,7.597,7.597v0.839C352.371,125.199,348.97,128.6,344.774,128.6z"/>
	<path style="fill:#FEC007;" d="M241.346,115.954c-4.196,0-7.597-3.401-7.597-7.597v-0.839c0-4.196,3.401-7.597,7.597-7.597
		s7.597,3.401,7.597,7.597v0.839C248.943,112.552,245.542,115.954,241.346,115.954z"/>
	<path style="fill:#FEC007;" d="M241.669,383.967c-4.196,0-7.597-3.401-7.597-7.597v-0.839c0-4.196,3.401-7.597,7.597-7.597
		s7.597,3.401,7.597,7.597v0.839C249.266,380.566,245.865,383.967,241.669,383.967z"/>
	<path style="fill:#FEC007;" d="M328.459,387.528c-4.196,0-7.597-3.401-7.597-7.597v-0.839c0-4.196,3.401-7.597,7.597-7.597
		s7.597,3.401,7.597,7.597v0.839C336.056,384.127,332.655,387.528,328.459,387.528z"/>
	<path style="fill:#FEC007;" d="M95.325,125.597l-7.106-1.033l-3.178-6.438c-2.19-4.438-6.625-7.196-11.574-7.196
		c-0.001,0,0,0-0.001,0c-4.948,0-9.385,2.757-11.576,7.196l-3.178,6.439l-7.105,1.033c-4.898,0.712-8.89,4.078-10.42,8.785
		s-0.278,9.777,3.266,13.232l5.143,5.012l-1.215,7.077c-0.836,4.878,1.132,9.716,5.136,12.625c2.263,1.644,4.91,2.479,7.575,2.479
		c2.051,0,4.114-0.495,6.019-1.496l6.356-3.342l6.355,3.342c4.384,2.303,9.59,1.926,13.594-0.982
		c4.004-2.909,5.971-7.747,5.135-12.625l-1.214-7.077l5.141-5.012c3.545-3.454,4.797-8.525,3.268-13.232
		C104.215,129.676,100.223,126.309,95.325,125.597z"/>
	<path style="fill:#FEC007;" d="M54.78,262.897l-7.106-1.033l-3.178-6.439c-2.19-4.438-6.625-7.195-11.575-7.195
		s-9.385,2.757-11.575,7.195l-3.178,6.439l-7.105,1.033c-4.898,0.711-8.891,4.078-10.421,8.785
		c-1.53,4.708-0.278,9.778,3.267,13.233l5.142,5.011l-1.213,7.077c-0.838,4.878,1.13,9.715,5.134,12.625
		c4.005,2.909,9.212,3.286,13.594,0.983l6.356-3.342l6.356,3.342c1.906,1.002,3.967,1.496,6.019,1.496
		c2.665,0,5.313-0.836,7.575-2.48c4.004-2.91,5.971-7.747,5.134-12.624l-1.214-7.077l5.143-5.012
		c3.544-3.455,4.796-8.525,3.266-13.232C63.67,266.975,59.677,263.608,54.78,262.897z"/>
	<path style="fill:#FEC007;" d="M228.814,214.735l-1.214-7.076l5.143-5.012c3.544-3.455,4.796-8.525,3.266-13.232
		s-5.522-8.073-10.42-8.785l-7.105-1.033l-3.178-6.439c0,0,0,0-0.001-0.001c-2.191-4.438-6.626-7.195-11.576-7.194
		c-4.949,0-9.384,2.758-11.574,7.195l-3.178,6.439l-7.105,1.033c-4.899,0.712-8.891,4.078-10.421,8.786
		c-1.529,4.707-0.277,9.777,3.267,13.231l5.142,5.013l-1.214,7.077c-0.836,4.878,1.132,9.716,5.135,12.625
		c4.006,2.91,9.215,3.285,13.594,0.982l6.356-3.342l6.355,3.341c1.905,1.002,3.967,1.497,6.019,1.497
		c2.665,0,5.312-0.835,7.575-2.479C227.682,224.452,229.651,219.615,228.814,214.735z"/>
	<path style="fill:#FEC007;" d="M177.101,310.584l-7.106-1.033l-3.178-6.438c-2.19-4.439-6.625-7.196-11.575-7.196
		s-9.385,2.757-11.575,7.195l-3.178,6.439l-7.105,1.033c-4.898,0.712-8.891,4.078-10.421,8.785s-0.278,9.777,3.266,13.232
		l5.143,5.012l-1.213,7.076c-0.838,4.878,1.13,9.716,5.134,12.625c2.263,1.644,4.911,2.479,7.575,2.479
		c2.052,0,4.113-0.495,6.019-1.496l6.355-3.341l6.356,3.341c4.381,2.302,9.591,1.927,13.595-0.983s5.971-7.747,5.134-12.624
		l-1.214-7.077l5.143-5.012c3.544-3.455,4.796-8.524,3.266-13.232C185.991,314.662,181.998,311.296,177.101,310.584z"/>
	<path style="fill:#FEC007;" d="M280.303,268.161l-7.106-1.033l-3.178-6.438c-2.19-4.439-6.625-7.196-11.575-7.196
		c-4.949,0-9.385,2.757-11.575,7.195l-3.178,6.438l-7.105,1.033c-4.898,0.712-8.891,4.078-10.421,8.785s-0.278,9.777,3.266,13.232
		l5.143,5.012l-1.213,7.076c-0.838,4.878,1.13,9.715,5.134,12.625c4.005,2.91,9.214,3.285,13.595,0.983l6.355-3.341l6.356,3.341
		c1.905,1.002,3.967,1.497,6.019,1.497c2.665,0,5.312-0.835,7.575-2.479c4.004-2.91,5.971-7.747,5.134-12.624l-1.214-7.077
		l5.143-5.012c3.544-3.455,4.796-8.524,3.266-13.232C289.193,272.239,285.2,268.873,280.303,268.161z"/>
	<path style="fill:#FEC007;" d="M406.744,299.602l-7.106-1.033l-3.178-6.438c-2.19-4.438-6.625-7.196-11.574-7.196
		c-0.001,0,0,0-0.001,0c-4.948,0-9.385,2.757-11.576,7.196l-3.178,6.439l-7.104,1.033c-4.898,0.711-8.891,4.078-10.421,8.785
		s-0.278,9.777,3.266,13.232l5.143,5.012l-1.215,7.077c-0.836,4.878,1.132,9.715,5.136,12.624c2.263,1.644,4.91,2.479,7.574,2.479
		c2.051,0,4.113-0.495,6.019-1.496l6.355-3.341l6.356,3.341c4.384,2.303,9.591,1.925,13.594-0.982
		c4.004-2.909,5.971-7.747,5.135-12.624l-1.214-7.077l5.143-5.012c3.544-3.455,4.796-8.524,3.266-13.232
		C415.634,303.68,411.641,300.314,406.744,299.602z"/>
	<path style="fill:#FEC007;" d="M511.36,282.304c-1.53-4.707-5.523-8.073-10.42-8.785l-7.106-1.033l-3.178-6.438
		c-2.19-4.438-6.625-7.196-11.575-7.196s-9.385,2.758-11.575,7.196l-3.178,6.438l-7.105,1.033
		c-4.898,0.712-8.891,4.078-10.421,8.785s-0.278,9.777,3.266,13.232l5.143,5.012l-1.213,7.076c-0.838,4.878,1.13,9.716,5.134,12.625
		c2.263,1.644,4.911,2.479,7.575,2.479c2.052,0,4.113-0.495,6.019-1.496l6.356-3.342l6.356,3.341
		c4.38,2.303,9.589,1.927,13.594-0.982c4.004-2.91,5.971-7.747,5.134-12.624l-1.213-7.077l5.143-5.012
		C511.637,292.081,512.889,287.011,511.36,282.304z"/>
</g>
<g>
</g>
<g>
</g>
<g>
</g>
<g>
</g>
<g>
</g>
<g>
</g>
<g>
</g>
<g>
</g>
<g>
</g>
<g>
</g>
<g>
</g>
<g>
</g>
<g>
</g>
<g>
</g>
<g>
</g>
</svg>
