<svg id="Layer_1" data-name="Layer 1" xmlns="http://www.w3.org/2000/svg" viewBox="0 0 64 64"><defs><style>.cls-1{fill:#a5a58d;}.cls-2{fill:#e76f51;}.cls-3{fill:#e9c46a;}.cls-4{fill:#a8dadc;}.cls-5{fill:#cb997e;}</style></defs><path class="cls-1" d="M48,30.56A6.39,6.39,0,0,1,48.5,33,6.51,6.51,0,0,1,42,39.5a6.69,6.69,0,0,1-2-.3c-.14.14-.27.28-.42.42A140.34,140.34,0,0,1,22.32,54.5,24.49,24.49,0,0,0,54.5,22.32C52.61,25,50.44,27.73,48,30.56Z" id="id_101" style="fill: rgb(166, 128, 201);"></path><path class="cls-1" d="M11.89,46a24.19,24.19,0,0,0,5.85,5.92A154.17,154.17,0,0,0,36,36l.15-.17A6.45,6.45,0,0,1,35.5,33a6.5,6.5,0,0,1,9-6c2.92-3.33,5.41-6.43,7.43-9.25A24.32,24.32,0,0,0,46,11.89a23.8,23.8,0,0,0-3.53-2.05A24.47,24.47,0,0,0,11.89,46Z" id="id_102" style="fill: rgb(183, 157, 207);"></path><circle class="cls-2" cx="42" cy="33" r="5.5" id="id_103"></circle><path class="cls-3" d="M60.75,3.25c-2.1-2.08-8.62.25-17.1,6.08a25.65,25.65,0,0,1,2.61,1.55c5.92-4.17,9.63-5.58,11-4.17s0,5.23-4.36,11.31a118.62,118.62,0,0,1-7.55,9.44,6.53,6.53,0,0,1,2.15,2.13C50,26.65,52.29,23.77,54.2,21,60.38,12.22,62.89,5.41,60.75,3.25Z" id="id_104"></path><path class="cls-3" d="M39.05,38.78a6.54,6.54,0,0,1-2.36-2A152.35,152.35,0,0,1,18,52.93c-4.58,3.25-7.88,4.89-9.83,4.89a2,2,0,0,1-1.48-.53c-1.4-1.4,0-5.11,4.17-11a24.6,24.6,0,0,1-1.55-2.61c-5.83,8.47-8.17,15-6.08,17.1s9-.36,17.78-6.55A139.32,139.32,0,0,0,38.92,38.92Z" id="id_105"></path><path class="cls-4" d="M11.91,7.11c-3.32.74-4.06,1.48-4.8,4.8a.11.11,0,0,1-.22,0c-.74-3.32-1.48-4.06-4.8-4.8a.11.11,0,0,1,0-.22c3.32-.74,4.06-1.48,4.8-4.8a.11.11,0,0,1,.22,0c.74,3.32,1.48,4.06,4.8,4.8A.11.11,0,0,1,11.91,7.11Z" id="id_106" style="fill: rgb(166, 76, 196);"></path><path class="cls-4" d="M61.91,57.11c-3.32.74-4.06,1.48-4.8,4.8a.11.11,0,0,1-.22,0c-.74-3.32-1.48-4.06-4.8-4.8a.11.11,0,0,1,0-.22c3.32-.74,4.06-1.48,4.8-4.8a.11.11,0,0,1,.22,0c.74,3.32,1.48,4.06,4.8,4.8A.11.11,0,0,1,61.91,57.11Z" id="id_107" style="fill: rgb(168, 85, 196);"></path><path class="cls-5" d="M12,32H10A22,22,0,0,1,32,10v2A20,20,0,0,0,12,32Z" id="id_108" style="fill: rgb(232, 225, 197);"></path><circle class="cls-5" cx="22" cy="36" r="3" id="id_109" style="fill: rgb(240, 234, 211);"></circle><circle class="cls-5" cx="37" cy="18" r="2" id="id_110" style="fill: rgb(245, 239, 215);"></circle></svg>