<?xml version="1.0" standalone="no"?>
<!DOCTYPE svg PUBLIC "-//W3C//DTD SVG 1.0//EN" "http://www.w3.org/TR/2001/REC-SVG-20010904/DTD/svg10.dtd">
<svg xmlns="http://www.w3.org/2000/svg" xmlns:xlink="http://www.w3.org/1999/xlink" id="body_1" width="707" height="530">

<g transform="matrix(8.28125 0 0 8.28125 88.50002 -0)">
    <path d="M48 30.56C 48.3251 31.33266 48.49499 32.16174 48.5 33C 48.494495 36.58757 45.58757 39.494495 42 39.5C 41.321987 39.501923 40.647614 39.40077 40 39.2C 39.86 39.34 39.73 39.48 39.58 39.62C 34.239536 45.039703 28.46722 50.016075 22.32 54.5C 31.532022 58.467613 42.232185 56.416916 49.324547 49.324547C 56.416916 42.23218 58.467613 31.532022 54.5 22.32C 52.61 25 50.44 27.73 48 30.56z" stroke="none" fill="#A5A58D" fill-rule="nonzero" />
    <path d="M11.89 46C 13.483332 48.296486 15.462627 50.29946 17.74 51.92C 24.23484 47.100494 30.340324 41.777405 36 36L36 36L36.15 35.83C 35.721054 34.948334 35.498753 33.980476 35.5 33C 35.5 30.826704 36.58616 28.797201 38.394447 27.591673C 40.20274 26.386145 42.49388 26.164118 44.5 27C 47.42 23.67 49.91 20.57 51.93 17.75C 50.305367 15.469896 48.299232 13.487448 46 11.89C 44.88421 11.106827 43.703213 10.42098 42.47 9.84C 32.42716 5.0265293 20.400778 7.601597 13.209372 16.105236C 6.0179634 24.608875 5.475689 36.89589 11.89 46z" stroke="none" fill="#A5A58D" fill-rule="nonzero" />
    <path d="M47.5 33C 47.5 34.518784 46.96303 35.815147 45.889088 36.889088C 44.815147 37.96303 43.518784 38.5 42 38.5C 40.481216 38.5 39.184853 37.96303 38.110912 36.889088C 37.036972 35.815147 36.5 34.518784 36.5 33C 36.5 31.481216 37.036972 30.184855 38.110912 29.110912C 39.184853 28.036972 40.481216 27.5 42 27.5C 43.518784 27.5 44.815147 28.036972 45.889088 29.110912C 46.96303 30.184855 47.5 31.481216 47.5 33C 47.5 33.064003 47.498886 33.127987 47.49665 33.191948" stroke="none" fill="#E76F51" fill-rule="nonzero" />
    <path d="M60.75 3.25C 58.65 1.1700001 52.13 3.5 43.65 9.33C 44.549847 9.794691 45.421356 10.312252 46.260002 10.88C 52.18 6.71 55.890003 5.3 57.260002 6.71C 58.63 8.12 57.260002 11.940001 52.9 18.02C 50.54545 21.292854 48.025406 24.443756 45.350002 27.46C 46.22358 27.991837 46.960026 28.72143 47.500004 29.59C 50 26.65 52.29 23.77 54.2 21C 60.38 12.22 62.89 5.41 60.75 3.25z" stroke="none" fill="#E9C46A" fill-rule="nonzero" />
    <path d="M39.05 38.78C 38.114716 38.311653 37.30541 37.625797 36.69 36.78C 30.907394 42.66034 24.656868 48.0614 18 52.93C 13.42 56.18 10.12 57.82 8.17 57.82C 7.625005 57.85275 7.0903115 57.661274 6.69 57.29C 5.29 55.89 6.69 52.18 10.860001 46.29C 10.2901 45.452744 9.772444 44.581078 9.31 43.68C 3.4800005 52.15 1.1400003 58.68 3.2300005 60.78C 5.3200006 62.879997 12.2300005 60.42 21.010002 54.23C 27.401623 49.64154 33.39301 44.51992 38.92 38.92L38.92 38.92L39.05 38.78z" stroke="none" fill="#E9C46A" fill-rule="nonzero" />
    <path d="M11.91 7.11C 8.59 7.8500004 7.85 8.59 7.1099997 11.91C 7.109916 11.970692 7.060692 12.019848 7 12.019848C 6.939308 12.019848 6.890084 11.970692 6.89 11.91C 6.1499996 8.59 5.41 7.85 2.0899997 7.1099997C 2.0293076 7.109916 1.9801515 7.060692 1.9801515 7C 1.9801515 6.939308 2.0293076 6.890084 2.0899997 6.89C 5.41 6.1499996 6.1499996 5.41 6.89 2.0899997C 6.890084 2.0293076 6.939308 1.9801515 7 1.9801515C 7.060692 1.9801515 7.109916 2.0293076 7.1099997 2.0899997C 7.8499994 5.41 8.59 6.1499996 11.91 6.89C 11.970751 6.89 12.02 6.9392486 12.02 7C 12.02 7.0607514 11.970751 7.11 11.91 7.11z" stroke="none" fill="#A8DADC" fill-rule="nonzero" />
    <path d="M61.91 57.11C 58.59 57.850002 57.85 58.59 57.11 61.91C 57.11 61.970753 57.060753 62.02 57 62.02C 56.939247 62.02 56.89 61.970753 56.89 61.91C 56.149998 58.59 55.41 57.85 52.09 57.11C 52.029247 57.11 51.98 57.060753 51.98 57C 51.98 56.939247 52.029247 56.89 52.09 56.89C 55.41 56.149998 56.15 55.41 56.89 52.09C 56.89 52.029247 56.939247 51.98 57 51.98C 57.060753 51.98 57.11 52.029247 57.11 52.09C 57.850002 55.41 58.59 56.15 61.91 56.89C 61.970753 56.89 62.02 56.939247 62.02 57C 62.02 57.060753 61.970753 57.11 61.91 57.11z" stroke="none" fill="#A8DADC" fill-rule="nonzero" />
    <path d="M12 32L10 32C 10 19.849735 19.849735 10 32 10L32 10L32 12C 20.954304 12 12 20.954304 12 32z" stroke="none" fill="#CB997E" fill-rule="nonzero" />
    <path d="M25 36C 25.000002 36.82843 24.707108 37.535534 24.12132 38.12132C 23.535534 38.707108 22.828428 39 22 39C 21.171574 39 20.464466 38.707108 19.87868 38.12132C 19.292892 37.535534 19 36.82843 19 36C 19 35.171574 19.292892 34.46447 19.87868 33.87868C 20.464466 33.292892 21.171574 33 22 33C 22.828428 33 23.535534 33.292892 24.12132 33.87868C 24.707108 34.46447 25.000002 35.171574 25 36C 25.000002 36.034912 24.999393 36.06981 24.998173 36.1047" stroke="none" fill="#CB997E" fill-rule="nonzero" />
    <path d="M39 18C 39 18.552284 38.80474 19.02369 38.414215 19.414213C 38.02369 19.804739 37.552284 20 37 20C 36.447716 20 35.97631 19.804739 35.585785 19.414213C 35.195263 19.02369 35 18.552284 35 18C 35 17.447716 35.195263 16.97631 35.585785 16.585787C 35.97631 16.195263 36.447716 16 37 16C 37.552284 16 38.02369 16.195263 38.414215 16.585787C 38.80474 16.97631 39 17.447716 39 18C 39 18.023273 38.999596 18.04654 38.998783 18.0698" stroke="none" fill="#CB997E" fill-rule="nonzero" />
</g>
</svg>